Coordinates
version=1
nRows=8
nColumns=40
inDegrees=yes

Units are S.I. units (second, meters, Newtons, ...)
Angles are in degrees.

endheader
time	pelvis_tilt	pelvis_list	pelvis_rotation	pelvis_tx	pelvis_ty	pelvis_tz	hip_flexion_r	hip_adduction_r	hip_rotation_r	knee_angle_r	knee_angle_r_beta	ankle_angle_r	subtalar_angle_r	mtp_angle_r	hip_flexion_l	hip_adduction_l	hip_rotation_l	knee_angle_l	knee_angle_l_beta	ankle_angle_l	subtalar_angle_l	mtp_angle_l	lumbar_extension	lumbar_bending	lumbar_rotation	arm_flex_r	arm_add_r	arm_rot_r	elbow_flex_r	pro_sup_r	wrist_flex_r	wrist_dev_r	arm_flex_l	arm_add_l	arm_rot_l	elbow_flex_l	pro_sup_l	wrist_flex_l	wrist_dev_l
     45.15500000	     -6.76505338	     -4.72552880	    -12.00417803	      0.88270379	      0.92958668	      0.46821721	     24.68302405	      0.42283174	     -5.50375359	     20.97760069	     20.97760069	      7.33632156	      1.74416610	      0.37970529	      9.72851936	     -6.10637957	    -11.45541493	     19.99349495	     19.99349495	     17.54184860	    -14.25797279	      4.61068814	     -9.24587291	      6.58723775	      1.44495204	    -14.88644444	    -10.36114904	    -17.28539707	     24.17637144	     47.06744514	      0.00000000	      0.00000000	     37.20729680	    -24.45168062	     -7.16490426	     67.29921834	     47.56314743	      0.00000000	      0.00000000
     45.17350000	     -6.57552355	     -4.45700479	    -12.16903012	      0.88232048	      0.92857226	      0.47153585	     24.18336388	      0.29391049	     -6.46400281	     19.13954203	     19.13954203	      7.70054236	      4.87873282	      2.13854216	      8.94121624	     -5.95591151	    -11.96530140	     19.62728057	     19.62728057	     17.42032963	    -13.95422855	      3.13321514	     -9.25432298	      6.34434951	      1.59356577	    -16.01195100	    -10.18194297	    -17.14003232	     25.67491166	     46.95525657	      0.00000000	      0.00000000	     37.63607481	    -24.28987856	     -8.17285269	     69.28436613	     47.67764428	      0.00000000	      0.00000000
     45.19200000	     -6.57360103	     -4.10079620	    -12.25406206	      0.88187637	      0.92711624	      0.47503433	     24.08695526	      0.28246637	     -6.43420730	     18.05456944	     18.05456944	      7.48098837	      5.52143531	      2.49029503	      8.56111119	     -5.73174338	    -12.08559349	     19.60251751	     19.60251751	     17.74846108	    -13.96365952	      2.88398579	     -8.95367169	      6.06557084	      1.61260502	    -16.30357887	    -10.02614223	    -17.09225779	     25.67453596	     46.94605229	      0.00000000	      0.00000000	     38.36528185	    -24.51584918	     -8.38922208	     69.78976743	     47.70723896	      0.00000000	      0.00000000
     45.21050000	     -6.31519817	     -4.03062419	    -12.31000680	      0.88212603	      0.92632205	      0.47864952	     23.52130071	      0.34081610	     -7.09121992	     17.30579600	     17.30579600	      7.32873763	      7.02646989	      2.54297196	      7.61810170	     -5.75713626	    -12.38947297	     19.20113013	     19.20113013	     17.70347762	    -13.70968557	      1.66540160	     -9.00712573	      6.11524430	      1.73583750	    -16.81444060	    -10.00348416	    -16.41233043	     26.87906193	     46.80407577	      0.00000000	      0.00000000	     38.23115185	    -23.97578641	     -9.78520620	     71.85306370	     47.84357423	      0.00000000	      0.00000000
     45.22900000	     -6.16213694	     -3.85020425	    -12.32034570	      0.88241083	      0.92534169	      0.48239695	     23.37287082	      0.34809080	     -7.13132199	     17.45643281	     17.45643281	      7.27680586	      7.10787520	      2.31543925	      6.90451505	     -5.67109395	    -12.48391352	     18.98894401	     18.98894401	     18.03673581	    -13.59063156	      1.54175728	     -8.85407197	      6.05409558	      1.94756942	    -16.79322401	     -9.94943341	    -16.28990886	     26.87086110	     46.79206305	      0.00000000	      0.00000000	     38.67850818	    -23.78867726	     -9.93789211	     72.45240587	     47.86769696	      0.00000000	      0.00000000
     45.24750000	     -5.95787865	     -3.65804830	    -12.34084582	      0.88307805	      0.92454878	      0.48631123	     23.22692274	      0.32065511	     -6.99391373	     18.06890692	     18.06890692	      7.32084081	      6.88734521	      1.58498968	      6.05012155	     -5.56060115	    -12.64567269	     18.66522305	     18.66522305	     18.34618464	    -13.34361680	      1.46233152	     -8.71491834	      6.01847111	      2.28261068	    -16.78077691	     -9.95298958	    -16.13440751	     26.87763651	     46.77584437	      0.00000000	      0.00000000	     38.73052471	    -23.33822265	    -10.29087158	     73.29912850	     47.90664939	      0.00000000	      0.00000000
     45.26600000	     -5.75192236	     -3.52388131	    -12.30009071	      0.88392310	      0.92391808	      0.49039537	     23.07073695	      0.34942809	     -6.73901081	     18.93496049	     18.93496049	      7.40396500	      6.24131060	      0.69863276	      5.18492547	     -5.51966347	    -12.75313275	     18.34354579	     18.34354579	     18.63112796	    -13.11664905	      1.47217110	     -8.58088873	      6.04273655	      2.48129498	    -16.60673293	    -10.03604277	    -16.00590946	     26.94629453	     46.76124529	      0.00000000	      0.00000000	     38.64602217	    -22.96196405	    -10.72651635	     74.07075567	     47.94865084	      0.00000000	      0.00000000
     45.28450000	     -5.55769933	     -3.39580479	    -12.21725266	      0.88500440	      0.92342841	      0.49466986	     22.68573441	      0.49112899	     -6.14449471	     19.40861006	     19.40861006	      6.28459347	      4.65213950	     -3.61690348	      4.33505901	     -5.52042700	    -12.91429224	     18.07064814	     18.07064814	     19.08557778	    -12.65073579	      1.96150445	     -8.43074919	      6.06714126	      1.81467715	    -15.82234386	    -10.41057831	    -14.82444645	     26.96401408	     46.65014710	      0.00000000	      0.00000000	     37.33406551	    -22.84411147	    -13.06851541	     76.53252379	     48.13328079	      0.00000000	      0.00000000
